{
  "accessors": [
    {
      "bufferView": 2,
      "componentType": 5126,
      "count": 2800,
      "max": [
        1.2995688915252686,
        11.877006530761719,
        4.887351036071777
      ],
      "min": [
        -1.2995688915252686,
        -17.343225479125977,
        -10.274468421936035
      ],
      "type": "VEC3"
    },
    {
      "bufferView": 2,
      "byteOffset": 33600,
      "componentType": 5126,
      "count": 2800,
      "max": [
        0.9999804496765137,
        0.9446470737457275,
        0.6801472306251526
      ],
      "min": [
        -0.9999804496765137,
        -0.9361149668693542,
        -0.9953845143318176
      ],
      "type": "VEC3"
    },
    {
      "bufferView": 1,
      "componentType": 5126,
      "count": 2800,
      "max": [
        0.8750001192092896,
        1.0051214694976807
      ],
      "min": [
        0.125,
        0.0
      ],
      "type": "VEC2"
    },
    {
      "bufferView": 0,
      "componentType": 5125,
      "count": 3756,
      "type": "SCALAR"
    },
    {
      "bufferView": 2,
      "byteOffset": 67200,
      "componentType": 5126,
      "count": 372,
      "max": [
        0.3198806643486023,
        -13.753244400024414,
        -0.9163460731506348
      ],
      "min": [
        -0.3198806643486023,
        -19.494962692260742,
        -5.681083679199219
      ],
      "type": "VEC3"
    },
    {
      "bufferView": 2,
      "byteOffset": 71664,
      "componentType": 5126,
      "count": 372,
      "max": [
        0.9992235898971558,
        0.6480499505996704,
        0.6171445846557617
      ],
      "min": [
        -0.9992235898971558,
        -0.5245691537857056,
        -0.8506497144699097
      ],
      "type": "VEC3"
    },
    {
      "bufferView": 1,
      "byteOffset": 22400,
      "componentType": 5126,
      "count": 372,
      "max": [
        0.8750001192092896,
        1.0000001192092896
      ],
      "min": [
        0.1250000149011612,
        0.0
      ],
      "type": "VEC2"
    },
    {
      "bufferView": 0,
      "byteOffset": 15024,
      "componentType": 5125,
      "count": 468,
      "type": "SCALAR"
    },
    {
      "bufferView": 2,
      "byteOffset": 76128,
      "componentType": 5126,
      "count": 1732,
      "max": [
        0.7411029934883118,
        -12.169081687927246,
        -1.5468807220458984
      ],
      "min": [
        -0.7411029934883118,
        -13.250201225280762,
        -2.6287193298339844
      ],
      "type": "VEC3"
    },
    {
      "bufferView": 2,
      "byteOffset": 96912,
      "componentType": 5126,
      "count": 1732,
      "max": [
        0.9994715452194214,
        0.9402796030044556,
        0.9918000102043152
      ],
      "min": [
        -0.9994714856147766,
        -0.9493023753166199,
        -0.9939795732498169
      ],
      "type": "VEC3"
    },
    {
      "bufferView": 1,
      "byteOffset": 25376,
      "componentType": 5126,
      "count": 1732,
      "max": [
        1.0,
        1.0
      ],
      "min": [
        0.0,
        0.0
      ],
      "type": "VEC2"
    },
    {
      "bufferView": 0,
      "byteOffset": 16896,
      "componentType": 5125,
      "count": 1932,
      "type": "SCALAR"
    }
  ],
  "asset": {
    "extras": {
      "author": "Dylan Spin (https://sketchfab.com/DylanSpin)",
      "license": "CC-BY-4.0 (http://creativecommons.org/licenses/by/4.0/)",
      "source": "https://sketchfab.com/3d-models/low-poly-rhino-c8940dc63ea5480f830440d696a72f18",
      "title": "Low Poly Rhino"
    },
    "generator": "Sketchfab-13.17.0",
    "version": "2.0"
  },
  "bufferViews": [
    {
      "buffer": 0,
      "byteLength": 24624,
      "name": "floatBufferViews",
      "target": 34963
    },
    {
      "buffer": 0,
      "byteLength": 39232,
      "byteOffset": 24624,
      "byteStride": 8,
      "name": "floatBufferViews",
      "target": 34962
    },
    {
      "buffer": 0,
      "byteLength": 117696,
      "byteOffset": 63856,
      "byteStride": 12,
      "name": "floatBufferViews",
      "target": 34962
    }
  ],
  "buffers": [
    {
      "byteLength": 181552,
      "uri": "scene.bin"
    }
  ],
  "materials": [
    {
      "doubleSided": true,
      "name": "Body",
      "pbrMetallicRoughness": {
        "baseColorFactor": [
          0.1303336552,
          0.1270972407,
          0.14375575,
          1.0
        ],
        "metallicFactor": 0.0
      }
    },
    {
      "doubleSided": true,
      "name": "Horn",
      "pbrMetallicRoughness": {
        "baseColorFactor": [
          0.447979,
          0.447979,
          0.447979,
          1.0
        ],
        "metallicFactor": 0.0
      }
    },
    {
      "doubleSided": true,
      "name": "Eye.003",
      "pbrMetallicRoughness": {
        "baseColorFactor": [
          0.0272683329,
          0.0272683329,
          0.0272683329,
          1.0
        ],
        "metallicFactor": 0.0,
        "roughnessFactor": 0.9843524659
      }
    }
  ],
  "meshes": [
    {
      "name": "Cube_Body_0",
      "primitives": [
        {
          "attributes": {
            "NORMAL": 1,
            "POSITION": 0,
            "TEXCOORD_0": 2
          },
          "indices": 3,
          "material": 0,
          "mode": 4
        }
      ]
    },
    {
      "name": "Cube_Horn_0",
      "primitives": [
        {
          "attributes": {
            "NORMAL": 5,
            "POSITION": 4,
            "TEXCOORD_0": 6
          },
          "indices": 7,
          "material": 1,
          "mode": 4
        }
      ]
    },
    {
      "name": "Cube_Eye.003_0",
      "primitives": [
        {
          "attributes": {
            "NORMAL": 9,
            "POSITION": 8,
            "TEXCOORD_0": 10
          },
          "indices": 11,
          "material": 2,
          "mode": 4
        }
      ]
    }
  ],
  "nodes": [
    {
      "children": [
        1
      ],
      "matrix": [
        1.0,
        0.0,
        0.0,
        0.0,
        0.0,
        2.220446049250313e-16,
        -1.0,
        0.0,
        0.0,
        1.0,
        2.220446049250313e-16,
        0.0,
        0.0,
        0.0,
        0.0,
        1.0
      ],
      "name": "Sketchfab_model"
    },
    {
      "children": [
        2
      ],
      "matrix": [
        0.009999999776482582,
        0.0,
        0.0,
        0.0,
        0.0,
        0.0,
        0.009999999776482582,
        0.0,
        0.0,
        -0.009999999776482582,
        0.0,
        0.0,
        0.0,
        0.0,
        0.0,
        1.0
      ],
      "name": "650fef541b6f46dc8551c8c0309b901c.fbx"
    },
    {
      "children": [
        3
      ],
      "name": "RootNode"
    },
    {
      "children": [
        4,
        5,
        6
      ],
      "matrix": [
        351.7823791503906,
        0.0,
        0.0,
        0.0,
        0.0,
        -1.629206793918314e-05,
        -99.99999999999868,
        0.0,
        0.0,
        99.99999999999868,
        -1.629206793918314e-05,
        0.0,
        0.0,
        1091.215087890625,
        169.0731964111328,
        1.0
      ],
      "name": "Cube"
    },
    {
      "mesh": 0,
      "name": "Cube_Body_0"
    },
    {
      "mesh": 1,
      "name": "Cube_Horn_0"
    },
    {
      "mesh": 2,
      "name": "Cube_Eye.003_0"
    }
  ],
  "scene": 0,
  "scenes": [
    {
      "name": "Sketchfab_Scene",
      "nodes": [
        0
      ]
    }
  ]
}
