{
  "accessors": [
    {
      "bufferView": 2,
      "componentType": 5126,
      "count": 3328,
      "max": [
        1.5184398889541626,
        17.295642852783203,
        9.122339248657227
      ],
      "min": [
        -1.5184398889541626,
        -9.929261207580566,
        -12.479887962341309
      ],
      "type": "VEC3"
    },
    {
      "bufferView": 2,
      "byteOffset": 39936,
      "componentType": 5126,
      "count": 3328,
      "max": [
        0.9999367594718933,
        0.9770578145980835,
        0.9737168550491333
      ],
      "min": [
        -0.9999367594718933,
        -0.9845455288887024,
        -0.996546745300293
      ],
      "type": "VEC3"
    },
    {
      "bufferView": 1,
      "componentType": 5126,
      "count": 3328,
      "max": [
        0.7480633854866028,
        0.8118301630020142
      ],
      "min": [
        0.2983728051185608,
        0.380093514919281
      ],
      "type": "VEC2"
    },
    {
      "bufferView": 0,
      "componentType": 5125,
      "count": 4992,
      "type": "SCALAR"
    },
    {
      "bufferView": 2,
      "byteOffset": 79872,
      "componentType": 5126,
      "count": 808,
      "max": [
        1.1991496086120605,
        17.164871215820313,
        4.9730143547058105
      ],
      "min": [
        -1.1991496086120605,
        -8.061161994934082,
        -12.453934669494629
      ],
      "type": "VEC3"
    },
    {
      "bufferView": 2,
      "byteOffset": 89568,
      "componentType": 5126,
      "count": 808,
      "max": [
        0.9998085498809814,
        0.8235088586807251,
        0.7570636868476868
      ],
      "min": [
        -0.9998085498809814,
        -0.8256568312644958,
        -0.9992319941520691
      ],
      "type": "VEC3"
    },
    {
      "bufferView": 1,
      "byteOffset": 26624,
      "componentType": 5126,
      "count": 808,
      "max": [
        0.3750000298023224,
        0.7500001192092896
      ],
      "min": [
        0.25884196162223816,
        0.4999999701976776
      ],
      "type": "VEC2"
    },
    {
      "bufferView": 0,
      "byteOffset": 19968,
      "componentType": 5125,
      "count": 1212,
      "type": "SCALAR"
    },
    {
      "bufferView": 2,
      "byteOffset": 99264,
      "componentType": 5126,
      "count": 384,
      "max": [
        0.3297041356563568,
        18.1688232421875,
        6.552835941314697
      ],
      "min": [
        -0.3297041356563568,
        -10.29091739654541,
        -4.054655075073242
      ],
      "type": "VEC3"
    },
    {
      "bufferView": 2,
      "byteOffset": 103872,
      "componentType": 5126,
      "count": 384,
      "max": [
        0.9983059167861938,
        0.9804069995880127,
        0.8176965117454529
      ],
      "min": [
        -0.9983059167861938,
        -0.7771702408790588,
        -0.9717209339141846
      ],
      "type": "VEC3"
    },
    {
      "bufferView": 1,
      "byteOffset": 33088,
      "componentType": 5126,
      "count": 384,
      "max": [
        0.625,
        0.8117021918296814
      ],
      "min": [
        0.30984926223754883,
        0.4380881190299988
      ],
      "type": "VEC2"
    },
    {
      "bufferView": 0,
      "byteOffset": 24816,
      "componentType": 5125,
      "count": 576,
      "type": "SCALAR"
    },
    {
      "bufferView": 2,
      "byteOffset": 108480,
      "componentType": 5126,
      "count": 3968,
      "max": [
        0.5870518684387207,
        15.166747093200684,
        6.844574928283691
      ],
      "min": [
        -0.5870518684387207,
        14.332005500793457,
        6.009832382202148
      ],
      "type": "VEC3"
    },
    {
      "bufferView": 2,
      "byteOffset": 156096,
      "componentType": 5126,
      "count": 3968,
      "max": [
        0.997911274433136,
        0.9737693071365356,
        0.9949670433998108
      ],
      "min": [
        -0.997911274433136,
        -0.9737650156021118,
        -0.994971752166748
      ],
      "type": "VEC3"
    },
    {
      "bufferView": 1,
      "byteOffset": 36160,
      "componentType": 5126,
      "count": 3968,
      "max": [
        1.0000001192092896,
        1.0
      ],
      "min": [
        0.0,
        0.0
      ],
      "type": "VEC2"
    },
    {
      "bufferView": 0,
      "byteOffset": 27120,
      "componentType": 5125,
      "count": 5760,
      "type": "SCALAR"
    },
    {
      "bufferView": 2,
      "byteOffset": 203712,
      "componentType": 5126,
      "count": 24,
      "max": [
        0.6419331431388855,
        13.105818748474121,
        7.0358757972717285
      ],
      "min": [
        -0.6419331431388855,
        12.446784019470215,
        6.34581184387207
      ],
      "type": "VEC3"
    },
    {
      "bufferView": 2,
      "byteOffset": 204000,
      "componentType": 5126,
      "count": 24,
      "max": [
        0.9475944638252258,
        0.3182603716850281,
        -0.027851106598973274
      ],
      "min": [
        -0.9475943446159363,
        0.31825941801071167,
        -0.027852725237607956
      ],
      "type": "VEC3"
    },
    {
      "bufferView": 1,
      "byteOffset": 67904,
      "componentType": 5126,
      "count": 24,
      "max": [
        0.6202245354652405,
        0.48484787344932556
      ],
      "min": [
        0.5967965126037598,
        0.4792868494987488
      ],
      "type": "VEC2"
    },
    {
      "bufferView": 0,
      "byteOffset": 50160,
      "componentType": 5125,
      "count": 36,
      "type": "SCALAR"
    }
  ],
  "asset": {
    "extras": {
      "author": "Dylan Spin (https://sketchfab.com/DylanSpin)",
      "license": "CC-BY-4.0 (http://creativecommons.org/licenses/by/4.0/)",
      "source": "https://sketchfab.com/3d-models/low-poly-camel-e2571167e3d846e59769b61913f1de64",
      "title": "Low Poly Camel"
    },
    "generator": "Sketchfab-12.97.0",
    "version": "2.0"
  },
  "bufferViews": [
    {
      "buffer": 0,
      "byteLength": 50304,
      "name": "floatBufferViews",
      "target": 34963
    },
    {
      "buffer": 0,
      "byteLength": 68096,
      "byteOffset": 50304,
      "byteStride": 8,
      "name": "floatBufferViews",
      "target": 34962
    },
    {
      "buffer": 0,
      "byteLength": 204288,
      "byteOffset": 118400,
      "byteStride": 12,
      "name": "floatBufferViews",
      "target": 34962
    }
  ],
  "buffers": [
    {
      "byteLength": 322688,
      "uri": "scene.bin"
    }
  ],
  "materials": [
    {
      "doubleSided": true,
      "name": "Body",
      "pbrMetallicRoughness": {
        "baseColorFactor": [
          0.181164,
          0.102242,
          0.06301,
          1.0
        ],
        "metallicFactor": 0.0,
        "roughnessFactor": 0.9715398032241644
      }
    },
    {
      "doubleSided": true,
      "name": "Hair",
      "pbrMetallicRoughness": {
        "baseColorFactor": [
          0.13418847266791645,
          0.0736934191644315,
          0.040490055170960826,
          1.0
        ],
        "metallicFactor": 0.0,
        "roughnessFactor": 0.9812474607158923
      }
    },
    {
      "doubleSided": true,
      "name": "Nose",
      "pbrMetallicRoughness": {
        "baseColorFactor": [
          0.2529429999999998,
          0.16898999999999983,
          0.11236399999999998,
          1.0
        ],
        "metallicFactor": 0.0,
        "roughnessFactor": 0.9591358553409592
      }
    },
    {
      "doubleSided": true,
      "name": "material",
      "pbrMetallicRoughness": {
        "baseColorFactor": [
          0.0469615,
          0.0469615,
          0.0469615,
          1.0
        ],
        "metallicFactor": 0.0,
        "roughnessFactor": 0.9894990893674643
      }
    },
    {
      "doubleSided": true,
      "name": "material_4",
      "pbrMetallicRoughness": {
        "baseColorFactor": [
          0.295691,
          0.166201,
          0.0986452,
          1.0
        ],
        "metallicFactor": 0.0,
        "roughnessFactor": 0.9577711753085517
      }
    }
  ],
  "meshes": [
    {
      "name": "Cube_Body_0",
      "primitives": [
        {
          "attributes": {
            "NORMAL": 1,
            "POSITION": 0,
            "TEXCOORD_0": 2
          },
          "indices": 3,
          "material": 0,
          "mode": 4
        }
      ]
    },
    {
      "name": "Cube_Hair_0",
      "primitives": [
        {
          "attributes": {
            "NORMAL": 5,
            "POSITION": 4,
            "TEXCOORD_0": 6
          },
          "indices": 7,
          "material": 1,
          "mode": 4
        }
      ]
    },
    {
      "name": "Cube_Nose_0",
      "primitives": [
        {
          "attributes": {
            "NORMAL": 9,
            "POSITION": 8,
            "TEXCOORD_0": 10
          },
          "indices": 11,
          "material": 2,
          "mode": 4
        }
      ]
    },
    {
      "name": "Cube_Eye_0",
      "primitives": [
        {
          "attributes": {
            "NORMAL": 13,
            "POSITION": 12,
            "TEXCOORD_0": 14
          },
          "indices": 15,
          "material": 3,
          "mode": 4
        }
      ]
    },
    {
      "name": "Cube_Ear_0",
      "primitives": [
        {
          "attributes": {
            "NORMAL": 17,
            "POSITION": 16,
            "TEXCOORD_0": 18
          },
          "indices": 19,
          "material": 4,
          "mode": 4
        }
      ]
    }
  ],
  "nodes": [
    {
      "children": [
        1
      ],
      "matrix": [
        1.0,
        0.0,
        0.0,
        0.0,
        0.0,
        2.220446049250313e-16,
        -1.0,
        0.0,
        0.0,
        1.0,
        2.220446049250313e-16,
        0.0,
        0.0,
        0.0,
        0.0,
        1.0
      ],
      "name": "Sketchfab_model"
    },
    {
      "children": [
        2
      ],
      "matrix": [
        0.009999999776482582,
        0.0,
        0.0,
        0.0,
        0.0,
        0.0,
        0.009999999776482582,
        0.0,
        0.0,
        -0.009999999776482582,
        0.0,
        0.0,
        0.0,
        0.0,
        0.0,
        1.0
      ],
      "name": "7a50a90aaaf1451c8574fb5afaab5cc6.fbx"
    },
    {
      "children": [
        3
      ],
      "name": "RootNode"
    },
    {
      "children": [
        4,
        5,
        6,
        7,
        8
      ],
      "matrix": [
        215.16148376464844,
        0.0,
        0.0,
        0.0,
        0.0,
        -1.629206793918314e-05,
        -99.99999999999868,
        0.0,
        0.0,
        99.99999999999868,
        -1.629206793918314e-05,
        0.0,
        0.0,
        1238.1651611328125,
        316.7391052246094,
        1.0
      ],
      "name": "Cube"
    },
    {
      "mesh": 0,
      "name": "Cube_Body_0"
    },
    {
      "mesh": 1,
      "name": "Cube_Hair_0"
    },
    {
      "mesh": 2,
      "name": "Cube_Nose_0"
    },
    {
      "mesh": 3,
      "name": "Cube_Eye_0"
    },
    {
      "mesh": 4,
      "name": "Cube_Ear_0"
    }
  ],
  "scene": 0,
  "scenes": [
    {
      "name": "Sketchfab_Scene",
      "nodes": [
        0
      ]
    }
  ]
}
